<svg id="Layer_1" data-name="Layer 1" xmlns="http://www.w3.org/2000/svg" viewBox="0 0 526.21 275.73"><defs><style>.cls-1{fill:#130d0f;}.cls-2{fill:#ee1c25;}.cls-3{font-size:41.81px;fill:#120c0e;font-family:UTM-Facebook-K&T, "UTM Facebook K&T";letter-spacing:0.05em;}.cls-4{letter-spacing:0em;}</style></defs><path class="cls-1" d="M406,122.62a79.09,79.09,0,0,1-79.08,79.09H239.37v54H189.58V196q4.77-6.11,10.07-12.67c9.23-11.42,19.65-23.8,31.1-36.61H330.88a24.09,24.09,0,0,0,0-48.17H277.22a641.83,641.83,0,0,1,60.95-51.69L341,44.79A79.12,79.12,0,0,1,406,122.62Z"/><path class="cls-1" d="M272.39,43.54a691.77,691.77,0,0,0-66.32,55H147.83v60c-14.38,16.25-26.51,31.06-36,43.17-4.2,5.35-7.88,10.17-11,14.35h-.09V98.54H9.2v-55Z"/><path class="cls-2" d="M96.6,251.48s92.34-142.11,223.4-216C444.78-34.86,456.85,68.73,456.85,68.73s-22.08-92.1-122.8-17.54C226.16,131,148.3,251.48,148.3,251.48Z"/><path class="cls-1" d="M90,251.48s94.21-138.89,223.4-216S456.85,68.73,456.85,68.73,436.56-26.94,327.41,51.19,141.66,251.48,141.66,251.48Z"/><text class="cls-3" transform="translate(243.97 253.71)">TECKNOLO<tspan class="cls-4" x="211.81" y="0">G</tspan><tspan x="236.03" y="0">Y</tspan></text></svg>